# xmcd CD database file
#
# Track frame offsets:
#	150
#	19033
#	38180
#	57064
#
# Disc length: 1011 seconds
#
# Revision: 0
# Processed by: cddbd v1.5PL3 Copyright (c) Steve Scherf et al.
# Submitted via: CDex 1.51
#
DISCID=2703f104
DTITLE=ZONE - ｔｒｕｅ　ｂｌｕｅ／恋々…
DYEAR=1900
DGENRE=JPop
TTITLE0=ｔｒｕｅ　ｂｌｕｅ（フジテレビ系「ＡＳＴＲＯ　ＢＯＹ　鉄腕アトム」オープニング・テーマ）
TTITLE1=恋々…（ハウス食品「フルーチェ　アジア」ＣＭ曲）
TTITLE2=ｔｒｕｅ　ｂｌｕｅ（バッキング・トラック）
TTITLE3=恋々…（バッキング・トラック）
EXTD=
EXTT0=
EXTT1=
EXTT2=
EXTT3=
PLAYORDER=
